grf
version=1
nRows=7
nColumns=37
inDegrees=no
endheader
time	ground_force_1_vx	ground_force_1_vy	ground_force_1_vz	ground_force_1_px	ground_force_1_py	ground_force_1_pz	ground_moment_1_mx	ground_moment_1_my	ground_moment_1_mz	ground_force_2_vx	ground_force_2_vy	ground_force_2_vz	ground_force_2_px	ground_force_2_py	ground_force_2_pz	ground_moment_2_mx	ground_moment_2_my	ground_moment_2_mz	ground_force_3_vx	ground_force_3_vy	ground_force_3_vz	ground_force_3_px	ground_force_3_py	ground_force_3_pz	ground_moment_3_mx	ground_moment_3_my	ground_moment_3_mz	ground_force_4_vx	ground_force_4_vy	ground_force_4_vz	ground_force_4_px	ground_force_4_py	ground_force_4_pz	ground_moment_4_mx	ground_moment_4_my	ground_moment_4_mz
      0.00000000	      0.00000000	     -0.00000000	      0.00000000	      0.00000000	      0.00000000	      0.00000000	      0.00000000	      0.00000000	      0.00000000	     -0.03907062	     67.33249664	   -624.21203613	   -372.73729673	  -1157.12343413	      0.00000000	      0.00000000	      0.00000000	   2728.31091191	     12.05120050	    -15.07133399	   -205.27464294	   -422.54846571	   -709.13540380	      0.00000000	      0.00000000	      0.00000000	    353.13111127	      0.00000000	     -0.00000000	      0.00000000	      0.00000000	      0.00000000	      0.00000000	      0.00000000	      0.00000000	      0.00000000
      0.01000000	      0.00000000	     -0.00000000	      0.00000000	      0.00000000	      0.00000000	      0.00000000	      0.00000000	      0.00000000	      0.00000000	     -1.45230007	     67.48942566	   -630.13012695	   -372.68263120	  -1156.92798254	      0.00000000	      0.00000000	      0.00000000	   2831.73923603	     11.20250203	    -13.41387847	   -198.09445190	   -425.07648443	   -710.11882208	      0.00000000	      0.00000000	      0.00000000	    466.36600440	      0.00000000	     -0.00000000	      0.00000000	      0.00000000	      0.00000000	      0.00000000	      0.00000000	      0.00000000	      0.00000000
      0.02000000	      0.00000000	     -0.00000000	      0.00000000	      0.00000000	      0.00000000	      0.00000000	      0.00000000	      0.00000000	      0.00000000	     -2.35906768	     67.52867889	   -631.87860107	   -372.41044910	  -1156.64574166	      0.00000000	      0.00000000	     -0.00000000	   2844.39954366	     10.88660413	    -12.99038124	   -191.96372986	   -427.82538860	   -711.15717236	      0.00000000	     -0.00000000	      0.00000000	    414.37641877	      0.00000000	     -0.00000000	      0.00000000	      0.00000000	      0.00000000	      0.00000000	      0.00000000	      0.00000000	      0.00000000
      0.03000000	      0.00000000	     -0.00000000	      0.00000000	      0.00000000	      0.00000000	      0.00000000	      0.00000000	      0.00000000	      0.00000000	     -2.65926480	     67.30866241	   -632.44763184	   -371.59398967	  -1156.52133628	      0.00000000	      0.00000000	      0.00000000	   3150.72028912	     10.62795707	    -14.07502553	   -189.56044006	   -428.40788451	   -710.31731643	      0.00000000	      0.00000000	      0.00000000	    356.68342916	      0.00000000	     -0.00000000	      0.00000000	      0.00000000	      0.00000000	      0.00000000	      0.00000000	      0.00000000	      0.00000000
      0.04000000	      0.00000000	     -0.00000000	      0.00000000	      0.00000000	      0.00000000	      0.00000000	      0.00000000	      0.00000000	      0.00000000	     -3.29299092	     67.82044983	   -631.26055908	   -371.73750052	  -1156.36136221	      0.00000000	      0.00000000	     -0.00000000	   2884.73534522	     10.77558389	    -14.63695525	   -187.14526367	   -428.95361851	   -709.75778570	      0.00000000	      0.00000000	      0.00000000	    508.62267641	      0.00000000	     -0.00000000	      0.00000000	      0.00000000	      0.00000000	      0.00000000	      0.00000000	      0.00000000	      0.00000000
      0.05000000	      0.00000000	     -0.00000000	      0.00000000	      0.00000000	      0.00000000	      0.00000000	      0.00000000	      0.00000000	      0.00000000	     -3.23552966	     67.28501129	   -630.58789062	   -371.40237440	  -1157.10861021	      0.00000000	      0.00000000	     -0.00000000	   2794.25716521	     11.48354117	    -14.54875665	   -187.56022644	   -429.41580741	   -708.32792843	      0.00000000	     -0.00000000	     -0.00000000	    550.95596291	      0.00000000	     -0.00000000	      0.00000000	      0.00000000	      0.00000000	      0.00000000	      0.00000000	      0.00000000	      0.00000000
      0.06000000	      0.00000000	     -0.00000000	      0.00000000	      0.00000000	      0.00000000	      0.00000000	      0.00000000	      0.00000000	      0.00000000	     -2.85507488	     67.39078522	   -627.02294922	   -371.33363808	  -1156.83828437	      0.00000000	      0.00000000	      0.00000000	   2817.06455311	     12.18558953	    -13.89857780	   -185.01914978	   -430.67247627	   -710.17928570	      0.00000000	      0.00000000	      0.00000000	    770.70952466	      0.00000000	     -0.00000000	      0.00000000	      0.00000000	      0.00000000	      0.00000000	      0.00000000	      0.00000000	      0.00000000
